<?xml version="1.0" encoding="UTF-8"?>
<svg version="1.1" xmlns="http://www.w3.org/2000/svg" width="1254" height="1254">
<path d="M0 0 C413.82 0 827.64 0 1254 0 C1254 413.82 1254 827.64 1254 1254 C840.18 1254 426.36 1254 0 1254 C0 840.18 0 426.36 0 0 Z " fill="#FEFDFE" transform="translate(0,0)"/>
<path d="M0 0 C6.74422311 4.49614874 6.74422311 4.49614874 9.26171875 6.69921875 C9.81738525 7.18140869 10.37305176 7.66359863 10.94555664 8.16040039 C11.52039795 8.66434326 12.09523926 9.16828613 12.6875 9.6875 C13.92883751 10.76400176 15.17103371 11.83951409 16.4140625 12.9140625 C17.02282227 13.44032227 17.63158203 13.96658203 18.25878906 14.50878906 C20.66143571 16.56646794 23.10723646 18.56804839 25.5625 20.5625 C32.35035854 26.0782562 39.00199025 31.75198468 45.66601562 37.41601562 C52.12406926 42.90270514 58.61497616 48.33777129 65.1875 53.6875 C68.8809391 56.7243277 72.52298486 59.81960955 76.16625977 62.91625977 C79.55954109 65.7954532 82.98267786 68.63204237 86.4375 71.4375 C91.29843701 75.39276025 96.0540756 79.45973471 100.79956055 83.55175781 C104.40545946 86.65426631 108.05194825 89.69458523 111.75 92.6875 C116.13007923 96.24151166 120.31428288 99.96536131 124.484375 103.76171875 C127.90494533 106.80517651 131.45721979 109.67088551 135.015625 112.55078125 C138.38761363 115.318107 141.69665446 118.1514694 145 121 C149.12455611 124.55467214 153.27208312 128.0679263 157.5 131.5 C161.7279248 134.93208013 165.8752789 138.44551171 170 142 C175.0208567 146.32598479 180.10138803 150.56351822 185.24609375 154.7421875 C188.2336903 157.1915929 191.18251988 159.68434382 194.125 162.1875 C199.20839944 166.50973231 204.3424979 170.76652159 209.5 175 C215.19765979 179.67686085 220.85642223 184.39391181 226.47094727 189.17016602 C229.76200596 191.96562999 233.08579099 194.7151512 236.4375 197.4375 C243.68215757 203.33822109 250.73490003 209.46151221 257.81152344 215.56152344 C264.52640375 221.34670696 271.27422246 227.06966294 278.15625 232.65625 C282.09156033 235.89963763 285.94819302 239.23146797 289.81079102 242.56079102 C293.31235302 245.57245009 296.84786557 248.5305895 300.4375 251.4375 C305.48854068 255.53915271 310.40128396 259.78591011 315.30786133 264.05786133 C320.96399021 268.98000517 326.67759591 273.83064755 332.41162109 278.66162109 C339.63232161 284.74583263 346.83564585 290.84950691 354 297 C362.51722546 304.30924224 371.03763561 311.61097593 379.75 318.6875 C383.82694286 322.00443472 387.76459831 325.43938697 391.671875 328.953125 C397.60792986 334.17207256 403.82481463 339.06873686 410 344 C413.39743025 342.48133302 416.01618284 340.49720998 418.875 338.125 C419.84179688 337.32320312 420.80859375 336.52140625 421.8046875 335.6953125 C425.83280942 332.31048391 429.82017194 328.87810544 433.80615234 325.44384766 C438.19622166 321.66774051 442.66034418 317.99336767 447.15625 314.34375 C451.08793867 311.10334725 454.94147893 307.77509746 458.79980469 304.44799805 C462.40565003 301.34560475 466.05203792 298.3053422 469.75 295.3125 C473.2588399 292.46541499 476.65866637 289.54187448 480 286.5 C484.22013944 282.65808061 488.58027184 279.03884779 493.015625 275.44921875 C496.38761363 272.681893 499.69665446 269.8485306 503 267 C507.12455611 263.44532786 511.27208312 259.9320737 515.5 256.5 C520.90076172 252.11287098 526.174677 247.58776588 531.44921875 243.05078125 C538.71031003 236.80572679 546.00553429 230.6036885 553.4375 224.5625 C558.85856956 220.1485377 564.15841974 215.60217195 569.45703125 211.04296875 C574.40558716 206.78648075 579.3947854 202.57832994 584.38232422 198.36767578 C586.02908979 196.97540583 587.67310067 195.57994527 589.31640625 194.18359375 C594.32234652 189.93259941 599.3404038 185.70435708 604.4375 181.5625 C609.85856956 177.1485377 615.15841974 172.60217195 620.45703125 168.04296875 C625.40870387 163.78379992 630.40066317 159.57247138 635.39111328 155.35888672 C638.09572289 153.07453814 640.79772127 150.78710492 643.5 148.5 C644.58332099 147.58331874 645.66665432 146.66665207 646.75 145.75 C647.28625 145.29625 647.8225 144.8425 648.375 144.375 C663 132 677.625 119.625 692.25 107.25 C692.78641113 106.79608887 693.32282227 106.34217773 693.87548828 105.87451172 C694.95709521 104.95935587 696.03880069 104.0443165 697.12060547 103.12939453 C699.85617939 100.81556522 702.58992474 98.49963529 705.3203125 96.1796875 C710.3252298 91.93034079 715.34183625 87.70319309 720.4375 83.5625 C725.30208624 79.60427044 730.06062178 75.53350939 734.81054688 71.43945312 C738.31216351 68.42768013 741.84777593 65.46948309 745.4375 62.5625 C749.87239317 58.96363971 754.19567786 55.25267936 758.5 51.5 C763.65855495 47.00256649 768.88156886 42.61004716 774.19921875 38.30078125 C777.46329783 35.61941084 780.6725072 32.87937137 783.875 30.125 C784.46458496 29.61791504 785.05416992 29.11083008 785.66162109 28.58837891 C786.25152832 28.08097168 786.84143555 27.57356445 787.44921875 27.05078125 C811.66580311 6.22279793 811.66580311 6.22279793 821 0 C821 273.57 821 547.14 821 829 C815.76656091 825.07492068 810.76313318 821.17995026 805.875 816.875 C804.56020867 815.72620437 803.2450972 814.57777503 801.9296875 813.4296875 C801.27323242 812.85573242 800.61677734 812.28177734 799.94042969 811.69042969 C796.97629818 809.1081893 793.98875424 806.55365553 791 804 C786.15055448 799.85174513 781.31928273 795.68325418 776.5 791.5 C771.65824624 787.29789994 766.80645394 783.1080608 761.9375 778.9375 C761.36676758 778.44854248 760.79603516 777.95958496 760.20800781 777.45581055 C757.26241294 774.93357209 754.31406179 772.41460695 751.36328125 769.8984375 C746.12510827 765.42689516 740.90702385 760.94827526 735.8125 756.3125 C732.52057795 753.3208184 729.15408693 750.47475577 725.6875 747.6875 C720.8749471 743.79808842 716.3540148 739.6725675 711.84106445 735.4465332 C707.60505142 731.50209561 703.19365192 727.83519299 698.6796875 724.2109375 C695.86746685 721.8906505 693.18202737 719.46928866 690.5 717 C686.92207537 713.70668301 683.28460334 710.55348679 679.5 707.5 C674.74404581 703.66280969 670.24495199 699.60614899 665.75 695.46875 C662.19975182 692.28159538 658.49930743 689.30519735 654.78515625 686.3125 C650.79812821 683.00209243 647.00945606 679.49659616 643.21484375 675.96875 C641.16320879 673.97328212 641.16320879 673.97328212 639 673 C638.67 632.74 638.34 592.48 638 551 C632.07440732 556.91856196 632.07440732 556.91856196 626.75 563.1875 C623.46679321 567.26917375 620.06763861 571.17018086 616.5 575 C613.02562591 578.7330913 609.6992974 582.52373038 606.5 586.5 C602.86371286 591.01938545 599.03037427 595.28148086 595.08154297 599.52392578 C592.13068108 602.71324115 589.34007012 605.98364868 586.625 609.375 C582.57462766 614.41255986 578.22907464 619.10143711 573.80175781 623.80371094 C569.73833416 628.14294334 565.95822825 632.64741453 562.2421875 637.2890625 C559.76093371 640.28904531 557.15134044 643.1515203 554.5 646 C551.02578664 649.73325033 547.69931074 653.5237138 544.5 657.5 C540.8643595 662.01858176 537.03163598 666.27983329 533.08374023 670.52172852 C530.11284372 673.7329905 527.30038923 677.02627815 524.5625 680.4375 C521.19651492 684.62240095 517.66800278 688.58289979 514 692.5 C509.60027959 697.20326808 505.44867258 702.0301212 501.41015625 707.05078125 C494.92925465 714.98122 488.1398288 722.67359735 481.25 730.25 C478.24239392 733.56439286 475.37570304 736.95659083 472.5625 740.4375 C468.70291397 745.20996203 464.62800009 749.73109109 460.47265625 754.24609375 C457.25290481 757.83207284 454.24094824 761.56701492 451.21484375 765.31640625 C449.04367173 767.94708557 446.79758643 770.47942424 444.5 773 C441.47717579 776.31989486 438.57487839 779.69764112 435.75 783.1875 C430.00962584 790.27736563 424.0011861 797.13119667 418 804 C417.21238281 804.90234375 416.42476562 805.8046875 415.61328125 806.734375 C414.07749826 808.49133566 412.54022999 810.24693824 411 812 C403.33095139 804.41253702 396.24603349 796.39198776 389.46875 788.00390625 C384.97577164 782.5369753 380.29253937 777.23324209 375.64648438 771.89648438 C373.06362591 768.92144811 370.49943086 765.9305594 367.9375 762.9375 C367.44660889 762.36410889 366.95571777 761.79071777 366.44995117 761.19995117 C365.46114797 760.04469482 364.47245951 758.88934024 363.48388672 757.73388672 C360.99104479 754.82105958 358.49540566 751.91063078 356 749 C353.01035165 745.5128866 350.02124142 742.02532174 347.03515625 738.53515625 C341.87576284 732.50681237 336.70083909 726.49264094 331.5 720.5 C327.29794686 715.65820519 323.1080611 710.80645429 318.9375 705.9375 C318.44854248 705.36676758 317.95958496 704.79603516 317.45581055 704.20800781 C314.93357209 701.26241294 312.41460695 698.31406179 309.8984375 695.36328125 C305.42689516 690.12510827 300.94827526 684.90702385 296.3125 679.8125 C293.3208184 676.52057795 290.47475577 673.15408693 287.6875 669.6875 C283.79679292 664.87334412 279.66999534 660.35075666 275.44213867 655.83666992 C271.54031611 651.64706391 267.92689822 647.27845286 264.34375 642.8125 C261.18196559 639.01835871 257.81454636 635.43716235 254.43920898 631.83374023 C251.34219916 628.508452 248.40378316 625.11280061 245.5625 621.5625 C242.05356861 617.18748028 238.34155495 613.07979091 234.5 609 C229.87706979 604.09037644 225.5339901 599.05521692 221.31640625 593.7890625 C217.64013503 589.36265837 213.69573628 585.19198888 209.7734375 580.984375 C205.40643683 576.299403 201.23712702 571.45412539 197.0859375 566.578125 C196.55806641 565.95929443 196.03019531 565.34046387 195.48632812 564.70288086 C194.43862589 563.47373564 193.39293902 562.24286872 192.34960938 561.01000977 C191.86041016 560.43565186 191.37121094 559.86129395 190.8671875 559.26953125 C190.43519043 558.76010986 190.00319336 558.25068848 189.55810547 557.72583008 C187.45662092 555.39812806 185.22196409 553.21226951 183 551 C183.00747899 551.93068881 183.00747899 551.93068881 183.01510906 552.88017941 C183.13285184 568.00507901 183.189473 583.12888173 183.17878246 598.2541647 C183.17507323 605.56891333 183.19174851 612.88253674 183.25708008 620.19702148 C183.31399828 626.5754227 183.33198893 632.95256881 183.3040064 639.33118302 C183.29053801 642.70657925 183.29603664 646.0794543 183.34822655 649.4545269 C183.63443376 671.69881669 183.63443376 671.69881669 179.60527039 676.5819397 C176.81792148 678.88720356 174.24183458 680.43049418 171 682 C169.63097161 683.09370196 168.28764993 684.22206026 166.99609375 685.40625 C166.40602539 685.91768555 165.81595703 686.42912109 165.20800781 686.95605469 C164.62374023 687.46555664 164.03947266 687.97505859 163.4375 688.5 C162.48182129 689.32999512 162.48182129 689.32999512 161.50683594 690.17675781 C157.88552061 693.32962608 154.30245319 696.51947023 150.75 699.75 C147.45707034 702.73863253 144.08683231 705.58383605 140.625 708.375 C136.07139288 712.05636689 131.76417484 715.92774473 127.48095703 719.91357422 C123.39357285 723.69476753 119.11965827 727.19682668 114.78125 730.6875 C111.75980664 733.19971133 108.87559922 735.82402457 106 738.5 C101.38998361 742.7895776 96.62216764 746.80410897 91.71484375 750.75390625 C88.89326505 753.0883059 86.19409288 755.51990598 83.5 758 C79.0301488 762.11378909 74.40955107 765.97087297 69.68359375 769.78515625 C67.05291443 771.95632827 64.52057576 774.20241357 62 776.5 C58.60401318 779.59555196 55.13828469 782.55151207 51.5625 785.4375 C47.75912497 788.51336588 44.09917348 791.68753166 40.5 795 C36.0301488 799.11378909 31.40955107 802.97087297 26.68359375 806.78515625 C24.05291443 808.95632827 21.52057576 811.20241357 19 813.5 C12.9686552 818.9909363 6.79496261 824.47002493 0 829 C0 555.43 0 281.86 0 0 Z " fill="#0B0B0C" transform="translate(217,215)"/>
<path d="M0 0 C2.84744777 2.81932987 5.55242554 5.52341265 7.875 8.79296875 C8.63006836 9.84774414 8.63006836 9.84774414 9.40039062 10.92382812 C9.92826172 11.67083984 10.45613281 12.41785156 11 13.1875 C12.15612683 14.80607757 13.31238037 16.42456464 14.46875 18.04296875 C15.05527344 18.86716309 15.64179688 19.69135742 16.24609375 20.54052734 C18.97938973 24.37338142 21.74022689 28.18619054 24.5 32 C25.58481417 33.50117292 26.66944917 35.00247534 27.75390625 36.50390625 C28.55852295 37.61789795 28.55852295 37.61789795 29.37939453 38.75439453 C30.99282251 40.99005445 32.60410578 43.22724516 34.21484375 45.46484375 C39.76804624 53.17462973 45.35437205 60.85757631 51 68.5 C58.27942622 78.35407821 65.44830324 88.28574334 72.60449219 98.22949219 C79.26865714 107.48640216 85.97858256 116.70623556 92.75830078 125.87890625 C96.81370071 131.37193472 100.82444959 136.89542056 104.8125 142.4375 C108.33083455 147.32639718 111.86994503 152.19298731 115.5 157 C119.70235545 162.56486779 123.77878322 168.21517527 127.8515625 173.875 C131.86408964 179.44435061 135.9199012 184.97999961 140 190.5 C144.53757991 196.64011055 149.03966641 202.80354752 153.5 209 C160.25983749 218.38780773 167.12417344 227.69696495 174 237 C181.41841494 247.03716043 188.8083061 257.09158684 196.09912109 267.22192383 C200.67123472 273.56637363 205.31018385 279.86009675 209.96069336 286.1472168 C214.32166722 292.05248485 218.59539671 298.01355408 222.81640625 304.01953125 C225.09734955 307.13287604 227.50037861 310.06107784 230 313 C236.87941605 303.69978921 243.74222574 294.38911073 250.5 285 C255.54005611 277.99783154 260.64213397 271.04386727 265.76953125 264.10546875 C269.71415404 258.76142324 273.61969056 253.39089219 277.5 248 C282.54007819 240.99784758 287.64213385 234.04386744 292.76953125 227.10546875 C296.71415404 221.76142324 300.61969056 216.39089219 304.5 211 C308.96020953 204.80345586 313.46259635 198.64023977 318 192.5 C324.73553059 183.38251634 331.37863637 174.20059231 338 165 C345.20063208 154.99449602 352.44250786 145.02311522 359.76708984 135.10791016 C365.90919634 126.78497251 371.95790683 118.39567785 378 110 C385.20063208 99.99449602 392.44250786 90.02311522 399.76708984 80.10791016 C405.90919634 71.78497251 411.95790683 63.39567785 418 55 C425.26124333 44.91027478 432.55424009 34.84748359 439.95825195 24.86181641 C442.67343033 21.19236699 445.36047606 17.51084407 447.96484375 13.76171875 C448.41770752 13.11235352 448.87057129 12.46298828 449.3371582 11.79394531 C450.16763836 10.59679439 450.99097045 9.39463753 451.80541992 8.18652344 C453.94116051 5.11060548 455.60987136 3.51975863 459 2 C459.2103909 26.99117641 459.36902267 51.98221979 459.46630955 76.97410393 C459.5126856 88.57874052 459.57589437 100.18282634 459.67895508 111.78710938 C459.76875695 121.90332829 459.82674687 132.01914827 459.84679645 142.1357547 C459.85851383 147.49096772 459.8859823 152.84503964 459.95157051 158.19988632 C460.01285972 163.24482882 460.03146478 168.28816515 460.01796913 173.3334446 C460.02043634 175.18054892 460.03822341 177.02770934 460.07284927 178.87449074 C460.35209695 194.5425367 460.35209695 194.5425367 454.58995056 200.99319458 C453.08589292 202.35792619 451.55917255 203.69859203 450 205 C448.52338293 206.77662815 447.06026865 208.56480403 445.625 210.375 C441.94363311 214.92860712 438.07225527 219.23582516 434.08642578 223.51904297 C431.09587359 226.75176204 428.26228315 230.06687666 425.5 233.5 C421.86371286 238.01938545 418.03037427 242.28148086 414.08154297 246.52392578 C411.13068108 249.71324115 408.34007012 252.98364868 405.625 256.375 C401.57462766 261.41255986 397.22907464 266.10143711 392.80175781 270.80371094 C388.73833416 275.14294334 384.95822825 279.64741453 381.2421875 284.2890625 C378.76093371 287.28904531 376.15134044 290.1515203 373.5 293 C370.02578664 296.73325033 366.69931074 300.5237138 363.5 304.5 C359.8643595 309.01858176 356.03163598 313.27983329 352.08374023 317.52172852 C349.11284372 320.7329905 346.30038923 324.02627815 343.5625 327.4375 C340.19651492 331.62240095 336.66800278 335.58289979 333 339.5 C328.60027959 344.20326808 324.44867258 349.0301212 320.41015625 354.05078125 C313.92925465 361.98122 307.1398288 369.67359735 300.25 377.25 C297.24239392 380.56439286 294.37570304 383.95659083 291.5625 387.4375 C287.70291397 392.20996203 283.62800009 396.73109109 279.47265625 401.24609375 C276.25290481 404.83207284 273.24094824 408.56701492 270.21484375 412.31640625 C268.04367173 414.94708557 265.79758643 417.47942424 263.5 420 C260.47717579 423.31989486 257.57487839 426.69764112 254.75 430.1875 C249.00962584 437.27736563 243.0011861 444.13119667 237 451 C236.21238281 451.90234375 235.42476562 452.8046875 234.61328125 453.734375 C233.07749826 455.49133566 231.54022999 457.24693824 230 459 C222.33095139 451.41253702 215.24603349 443.39198776 208.46875 435.00390625 C203.97577164 429.5369753 199.29253937 424.23324209 194.64648438 418.89648438 C192.06362591 415.92144811 189.49943086 412.9305594 186.9375 409.9375 C186.44660889 409.36410889 185.95571777 408.79071777 185.44995117 408.19995117 C184.46114797 407.04469482 183.47245951 405.88934024 182.48388672 404.73388672 C179.99104479 401.82105958 177.49540566 398.91063078 175 396 C172.01035165 392.5128866 169.02124142 389.02532174 166.03515625 385.53515625 C160.87576284 379.50681237 155.70083909 373.49264094 150.5 367.5 C146.29794686 362.65820519 142.1080611 357.80645429 137.9375 352.9375 C137.44854248 352.36676758 136.95958496 351.79603516 136.45581055 351.20800781 C133.93357209 348.26241294 131.41460695 345.31406179 128.8984375 342.36328125 C124.42689516 337.12510827 119.94827526 331.90702385 115.3125 326.8125 C112.3208184 323.52057795 109.47475577 320.15408693 106.6875 316.6875 C102.79679292 311.87334412 98.66999534 307.35075666 94.44213867 302.83666992 C90.54031611 298.64706391 86.92689822 294.27845286 83.34375 289.8125 C80.18196559 286.01835871 76.81454636 282.43716235 73.43920898 278.83374023 C70.34219916 275.508452 67.40378316 272.11280061 64.5625 268.5625 C61.05356861 264.18748028 57.34155495 260.07979091 53.5 256 C48.87706979 251.09037644 44.5339901 246.05521692 40.31640625 240.7890625 C36.64013503 236.36265837 32.69573628 232.19198888 28.7734375 227.984375 C22.81869144 221.59605023 17.19655381 214.91288609 11.52539062 208.27368164 C11.04263672 207.7089917 10.55988281 207.14430176 10.0625 206.5625 C9.60212625 206.00224121 9.14175249 205.44198242 8.66742802 204.86474609 C7.06996011 202.9735051 7.06996011 202.9735051 5.19761562 201.56333923 C1.59650231 198.4103619 0.15315557 195.9278677 -0.63372612 191.16067505 C-0.95673555 186.17258383 -0.86645936 181.18633816 -0.79467773 176.19140625 C-0.79270173 174.26906914 -0.79381446 172.34672675 -0.79777527 170.4243927 C-0.79977992 165.22002117 -0.75868748 160.01678389 -0.70975757 154.81267548 C-0.66593476 149.36882817 -0.66188142 143.92495352 -0.65357971 138.48095703 C-0.63184157 128.17846836 -0.57442338 117.87650098 -0.50413328 107.57424164 C-0.42583328 95.84279324 -0.38738904 84.11131966 -0.35226524 72.37967491 C-0.27913948 48.25282784 -0.15605109 24.12644316 0 0 Z " fill="#0B0B0C" transform="translate(398,568)"/>
<path d="M0 0 C5.45312123 3.88420646 10.42447737 8.12926951 15.36328125 12.64453125 C18.0153883 15.01374688 20.73432638 17.26483641 23.5 19.5 C27.96276213 23.11032442 32.22719533 26.88427929 36.46875 30.75 C39.0884481 33.07862053 41.7751531 35.29562947 44.5 37.5 C48.96708963 41.11382531 53.23567038 44.8912648 57.48046875 48.76171875 C60.03204917 51.02847158 62.65171532 53.17540087 65.3125 55.3125 C70.12585437 59.20255931 74.6476145 63.32871834 79.16113281 67.55566406 C83.37393141 71.47878593 87.76395352 75.11896414 92.25390625 78.72265625 C95.79678299 81.66077451 99.15441772 84.78231178 102.52197266 87.91650391 C105.73316873 90.88730066 109.02636841 93.69968321 112.4375 96.4375 C117.21621628 100.28110057 121.69157687 104.36960164 126.16381836 108.55834961 C129.51099327 111.67553945 132.93005023 114.63573798 136.5 117.5 C140.6666621 120.84301959 144.60419812 124.35115137 148.5 128 C153.26088994 132.45874444 158.1646782 136.6379783 163.25390625 140.72265625 C166.26319052 143.21826469 169.13938654 145.83765143 172 148.5 C175.73327255 151.97419243 179.52371111 155.3006871 183.5 158.5 C187.47629694 161.69931938 191.26666073 165.0258704 195 168.5 C199.63245661 172.80999105 204.42122516 176.85061396 209.3515625 180.8203125 C212.83486454 183.68710091 216.14762944 186.72279913 219.48046875 189.76171875 C222.03204917 192.02847158 224.65171532 194.17540087 227.3125 196.3125 C232.1250529 200.20191158 236.6459852 204.3274325 241.15893555 208.5534668 C245.39494858 212.49790439 249.80634808 216.16480701 254.3203125 219.7890625 C257.13253315 222.1093495 259.81797263 224.53071134 262.5 227 C266.05670244 230.27418423 269.67161811 233.40642433 273.4375 236.4375 C277.97316443 240.09571015 282.2570117 243.94742965 286.51928711 247.91381836 C289.75193975 250.90427 293.06696766 253.73779007 296.5 256.5 C301.01244525 260.13070308 305.26934711 263.95682742 309.50415039 267.90087891 C313.69022374 271.77553511 318.05810523 275.38395679 322.52734375 278.9296875 C325 281 325 281 327.50390625 283.8203125 C329.7484772 286.20978818 329.7484772 286.20978818 332.3671875 286.21875 C336.32675411 284.38583489 339.04669135 281.54684919 342.125 278.5 C343.46363037 277.21092439 344.80478896 275.92446915 346.1484375 274.640625 C346.80424805 274.01349609 347.46005859 273.38636719 348.13574219 272.74023438 C351.4053787 269.6881169 354.89832561 266.93033161 358.390625 264.140625 C361.18431516 261.84879535 363.84208778 259.44768188 366.5 257 C370.05670244 253.72581577 373.67161811 250.59357567 377.4375 247.5625 C381.97316443 243.90428985 386.2570117 240.05257035 390.51928711 236.08618164 C394.60661006 232.30509442 398.88043244 228.80310034 403.21875 225.3125 C406.24019188 222.8002899 409.12441773 220.17599173 412 217.5 C416.58760113 213.23081848 421.33442728 209.24241483 426.21875 205.3125 C429.24019188 202.8002899 432.12441773 200.17599173 435 197.5 C439.58760113 193.23081848 444.33442728 189.24241483 449.21875 185.3125 C452.24019336 182.80028867 455.12440078 180.17597543 458 177.5 C462.61001639 173.2104224 467.37783236 169.19589103 472.28515625 165.24609375 C476.06709479 162.11715179 479.6475587 158.78482555 483.2578125 155.4609375 C485.90015883 153.08960105 488.60694167 150.84747003 491.375 148.625 C496.17220935 144.75716454 500.67204207 140.64890505 505.16577148 136.43969727 C508.49119755 133.34249154 511.88701675 130.40392933 515.4375 127.5625 C519.81251972 124.05356861 523.92020909 120.34155495 528 116.5 C532.91308115 111.8738141 537.95121721 107.52729313 543.22265625 103.30859375 C546.42442799 100.64720542 549.46234918 97.84537754 552.5 95 C557.23864143 90.56165094 562.12119579 86.40857547 567.1875 82.34375 C570.39849805 79.66791829 573.45029137 76.85641724 576.5 74 C581.23866464 69.56167326 586.12119326 65.4085775 591.1875 61.34375 C594.39850191 58.66791508 597.45024633 55.85637431 600.5 53 C605.30541542 48.50036444 610.25161507 44.2689633 615.38671875 40.14453125 C617.99847623 38.00125044 620.50365302 35.7761967 623 33.5 C627.29991791 29.58108748 631.75919547 25.90829131 636.28125 22.25 C638.92147729 20.06498431 641.4672972 17.80828609 644 15.5 C650.0313448 10.0090637 656.20503739 4.52997507 663 0 C661.70719297 2.68668764 660.29761977 5.17609072 658.64013672 7.65332031 C658.17073166 8.35735489 657.7013266 9.06138947 657.21769714 9.78675842 C656.45638237 10.92098488 656.45638237 10.92098488 655.6796875 12.078125 C655.14930374 12.87226303 654.61891998 13.66640106 654.07246399 14.48460388 C652.3420756 17.07447974 650.60850339 19.66220836 648.875 22.25 C647.67073448 24.05167523 646.46671564 25.85351537 645.26293945 27.65551758 C641.84437059 32.77195973 638.42251914 37.8861998 635 43 C613.81182361 74.6658575 592.71193728 106.4116121 572.125 138.47265625 C562.57749132 153.33477146 552.70642746 167.90556239 542.02734375 181.98046875 C538.80810348 186.23263154 535.67874655 190.5470092 532.5625 194.875 C531.75123657 196.00156006 531.75123657 196.00156006 530.92358398 197.15087891 C529.2814834 199.43326934 527.64071167 201.716611 526 204 C518.80143369 214.00696582 511.55746954 223.97691537 504.23291016 233.89208984 C498.09080366 242.21502749 492.04209317 250.60432215 486 259 C478.79936792 269.00550398 471.55749214 278.97688478 464.23291016 288.89208984 C458.09080366 297.21502749 452.04209317 305.60432215 446 314 C438.79877656 324.0063257 431.55744101 333.97939506 424.23071289 343.89428711 C420.28592959 349.23835616 416.38037592 354.60901545 412.5 360 C407.45992181 367.00215242 402.35786615 373.95613256 397.23046875 380.89453125 C393.28584596 386.23857676 389.38030944 391.60910781 385.5 397 C380.45992181 404.00215242 375.35786615 410.95613256 370.23046875 417.89453125 C366.28584516 423.23857784 362.38038689 428.60916262 358.5 434 C353.89057611 440.40209558 349.24317092 446.77479041 344.5625 453.125 C343.9953125 453.89457031 343.428125 454.66414063 342.84375 455.45703125 C339.25224598 460.32211826 335.63536832 465.16761016 332 470 C328.06191019 466.39244531 325.13764906 462.20663177 322.0625 457.875 C320.89589658 456.24604845 319.72922813 454.61714348 318.5625 452.98828125 C317.96953125 452.1576416 317.3765625 451.32700195 316.765625 450.47119141 C314.04264095 446.66006798 311.30405585 442.86027719 308.5625 439.0625 C308.02882813 438.32298096 307.49515625 437.58346191 306.9453125 436.8215332 C300.09415427 427.34280008 293.13429663 417.94405005 286.18115234 408.54003906 C280.00158399 400.18051599 273.83609404 391.81617974 267.82055664 383.33764648 C264.33187251 378.43373478 260.76454984 373.58970995 257.1875 368.75 C249.81711654 358.77607325 242.55729124 348.72481196 235.31494141 338.65771484 C229.41846268 330.46355517 223.50628298 322.28963467 217.42578125 314.23046875 C206.88078136 300.22588219 196.63512242 285.99877327 186.39550781 271.77050781 C176.83982184 258.49710816 167.16255502 245.31683539 157.42578125 232.17578125 C151.34590138 223.96085441 145.33748552 215.70640255 139.46606445 207.34106445 C134.26672826 199.936941 128.96244644 192.6100108 123.65429688 185.28369141 C120.87081774 181.44120855 118.09150518 177.59571914 115.3125 173.75 C114.826604 173.078479 114.34070801 172.40695801 113.84008789 171.71508789 C112.81919634 170.30264925 111.80010525 168.88890815 110.7824707 167.47412109 C109.47614956 165.66090941 108.16394603 163.85193178 106.84838867 162.04541016 C99.47038524 151.86820053 92.57779013 141.3860262 85.6875 130.875 C84.41249602 128.93485795 83.13718014 126.99492084 81.86157227 125.05517578 C79.21828499 121.03501818 76.57632104 117.01399636 73.93554688 112.9921875 C67.77749389 103.61454953 61.60920248 94.24365907 55.4375 84.875 C54.84580017 83.97663422 54.25410034 83.07826843 53.64447021 82.15267944 C41.66753835 63.97246889 29.60447195 45.85002335 17.50749207 27.74951172 C15.02936542 24.0413917 12.55426814 20.33134578 10.08740234 16.61572266 C9.40178474 15.58394646 9.40178474 15.58394646 8.70231628 14.53132629 C7.85604083 13.25731459 7.0106795 11.98269494 6.16645813 10.70732117 C4.58029831 8.32059543 2.98419471 5.97964909 1.22583008 3.71557617 C0 2 0 2 0 0 Z " fill="#FCFCFC" transform="translate(296,412)"/>
<path d="M0 0 C3.07082158 3.9482921 5.79227668 8.12574086 8.55859375 12.2890625 C9.37518211 13.51500626 9.37518211 13.51500626 10.20826721 14.76571655 C11.9524325 17.38475546 13.69500054 20.00485256 15.4375 22.625 C16.57476232 24.33340488 17.71213113 26.04173887 18.84960938 27.75 C21.12488051 31.16718176 23.39932871 34.58490935 25.67333984 38.00292969 C27.79606861 41.19282138 29.92117633 44.38109886 32.04931641 47.56738281 C38.97611182 57.93936084 45.84852668 68.34619129 52.70211792 78.7666626 C61.06759443 91.48477692 69.44636354 104.19338026 77.90234375 116.8515625 C78.53931183 117.80524719 79.17627991 118.75893188 79.83255005 119.74151611 C82.88068744 124.30352407 85.93227789 128.86317975 88.98828125 133.41992188 C90.09509518 135.07418992 91.20186818 136.72848535 92.30859375 138.3828125 C92.79802963 139.11021637 93.28746552 139.83762024 93.79173279 140.58706665 C94.70832883 141.95868875 95.61117483 143.33964342 96.49712849 144.73125458 C97.94458713 146.9926831 97.94458713 146.9926831 99.5616951 148.93858147 C105.68019654 157.27980543 104.79632541 166.12651443 104.6652832 176.00390625 C104.66194965 177.92329131 104.66128366 179.84268257 104.66307068 181.7620697 C104.66053106 186.94982454 104.62123096 192.13672072 104.57543206 197.32424927 C104.53407987 202.75647433 104.52773249 208.18873655 104.51786804 213.62109375 C104.49409646 223.89982541 104.44058506 234.17816764 104.37557238 244.45671272 C104.28135887 259.5660369 104.23218448 274.67552311 104.18278027 289.78504944 C104.17543343 292.01156622 104.16807025 294.23808294 104.16069031 296.46459961 C104.15714057 297.55112477 104.15359083 298.63764994 104.14993352 299.75710011 C104.12779109 306.22781538 104.09709155 312.69842124 104.0587908 319.16906071 C104.03547231 323.18217439 104.0157962 327.19530145 103.9966526 331.20843697 C103.98675856 333.07495719 103.9750857 334.94146891 103.96154404 336.80796623 C103.94324448 339.34658637 103.93096556 341.88516691 103.92012024 344.42382812 C103.91311468 345.16991616 103.90610912 345.9160042 103.89889127 346.68470097 C103.82504739 350.46786441 103.82504739 350.46786441 105 354 C105.10410576 355.61398631 105.14546724 357.23219857 105.15631104 358.84950256 C105.1651683 359.8741864 105.17402557 360.89887024 105.18315125 361.9546051 C105.18965446 363.64782143 105.18965446 363.64782143 105.19628906 365.37524414 C105.20435074 366.56076874 105.21241241 367.74629333 105.22071838 368.96774292 C105.28516988 379.91482371 105.28412783 390.86235773 105.26091385 401.8095789 C105.24473712 409.89720126 105.26401248 417.98309858 105.32984567 426.07047755 C105.37304042 431.76175221 105.37406116 437.45213396 105.34467673 443.14349073 C105.32835943 446.54003623 105.33057618 449.93416778 105.37879181 453.3304615 C105.637038 475.69547848 105.637038 475.69547848 101.6030426 480.59091187 C98.81561865 482.8965515 96.24403958 484.43487566 93 486 C91.63083177 487.09352689 90.28748397 488.22187928 88.99609375 489.40625 C88.40602539 489.91768555 87.81595703 490.42912109 87.20800781 490.95605469 C86.62374023 491.46555664 86.03947266 491.97505859 85.4375 492.5 C84.48182129 493.32999512 84.48182129 493.32999512 83.50683594 494.17675781 C79.88552061 497.32962608 76.30245319 500.51947023 72.75 503.75 C69.45707034 506.73863253 66.08683231 509.58383605 62.625 512.375 C58.07139288 516.05636689 53.76417484 519.92774473 49.48095703 523.91357422 C45.39357285 527.69476753 41.11965827 531.19682668 36.78125 534.6875 C33.75980664 537.19971133 30.87559922 539.82402457 28 542.5 C23.40278811 546.77766313 18.65102502 550.78394715 13.75390625 554.71875 C9.73906083 558.04452266 5.93291175 561.57801272 2.1171875 565.12890625 C0 567 0 567 -1 567 C-1.01711054 513.16287306 -1.03303217 459.32574586 -1.04234314 405.48861694 C-1.0424812 404.69239135 -1.04261925 403.89616575 -1.04276149 403.0758121 C-1.04575408 385.77359075 -1.04852431 368.47136937 -1.05106533 351.16914795 C-1.05231272 342.6847054 -1.05360926 334.20026285 -1.05493164 325.71582031 C-1.0550624 324.87149571 -1.05519316 324.02717111 -1.05532788 323.15726091 C-1.05959271 295.76771703 -1.06710661 268.37817522 -1.07629722 240.98863259 C-1.08572106 212.85306628 -1.09188341 184.71750112 -1.09391499 156.58193326 C-1.09420316 152.61215162 -1.0945288 148.64236998 -1.09487724 144.67258835 C-1.09494467 143.89124317 -1.09501209 143.109898 -1.09508156 142.3048757 C-1.09626538 129.70417044 -1.1009091 117.1034687 -1.10683203 104.50276488 C-1.11270667 91.8488661 -1.11497115 79.19497081 -1.11350138 66.54107071 C-1.1128056 59.67921627 -1.1137458 52.81737128 -1.11920547 45.95551872 C-1.12404049 39.68370854 -1.12433796 33.41191576 -1.12089889 27.14010482 C-1.1204733 24.86148368 -1.12176817 22.58286149 -1.12488318 20.30424245 C-1.12884921 17.22610985 -1.12676205 14.14804149 -1.12304783 11.06991005 C-1.12567484 10.1687089 -1.12830186 9.26750776 -1.13100848 8.33899748 C-1.1141458 2.2282916 -1.1141458 2.2282916 0 0 Z " fill="#2C2C2E" transform="translate(295,411)"/>
<path d="M0 0 C0.99 0.495 0.99 0.495 2 1 C2 187.12 2 373.24 2 565 C-1.95782286 565 -2.66724162 563.75270073 -5.5 561.0625 C-9.012794 557.79880427 -12.56722415 554.68152726 -16.3125 551.6875 C-21.1250529 547.79808842 -25.6459852 543.6725675 -30.15893555 539.4465332 C-34.39494858 535.50209561 -38.80634808 531.83519299 -43.3203125 528.2109375 C-46.13253315 525.8906505 -48.81797263 523.46928866 -51.5 521 C-55.07792463 517.70668301 -58.71539666 514.55348679 -62.5 511.5 C-67.25595419 507.66280969 -71.75504801 503.60614899 -76.25 499.46875 C-79.80024818 496.28159538 -83.50069257 493.30519735 -87.21484375 490.3125 C-91.20187179 487.00209243 -94.99054394 483.49659616 -98.78515625 479.96875 C-100.83679121 477.97328212 -100.83679121 477.97328212 -103 477 C-103.15376127 460.84973009 -103.30179822 444.69941953 -103.4429636 428.54903507 C-103.50863906 421.05064721 -103.57620919 413.55228525 -103.64819336 406.05395508 C-103.71090778 399.52072529 -103.77011455 392.9874749 -103.82505554 386.45417494 C-103.85428781 382.99276086 -103.88531286 379.53138324 -103.92053413 376.07002449 C-103.95972442 372.21216869 -103.99108565 368.35427155 -104.02172852 364.49633789 C-104.03467453 363.34044159 -104.04762054 362.18454529 -104.06095886 360.99362183 C-104.06799835 359.94889206 -104.07503784 358.90416229 -104.08229065 357.82777405 C-104.09058679 356.9142772 -104.09888292 356.00078035 -104.10743046 355.05960178 C-104 353 -104 353 -103 352 C-102.90228493 349.52108029 -102.87004043 347.07005223 -102.87974548 344.59068298 C-102.87889106 343.80578651 -102.87803663 343.02089003 -102.87715632 342.21220881 C-102.87549913 339.56194141 -102.88102676 336.91173625 -102.88647461 334.26147461 C-102.88675646 332.36972556 -102.8865988 330.4779764 -102.8860321 328.58622742 C-102.88574403 323.4335489 -102.89164235 318.28089345 -102.89860606 313.12822032 C-102.90483796 307.74967104 -102.90544327 302.3711213 -102.90663147 296.99256897 C-102.90974527 286.79988176 -102.91795931 276.60720521 -102.92798096 266.41452271 C-102.93914059 254.81375432 -102.94465217 243.21298543 -102.94967639 231.61221302 C-102.96014189 207.74146942 -102.97774227 183.87073531 -103 160 C-103.66 160.33 -104.32 160.66 -105 161 C-96.85233414 143.73370293 -84.49041745 127.92847567 -74 112 C-73.47605652 111.20430603 -72.95211304 110.40861206 -72.41229248 109.58880615 C-65.20472018 98.64324216 -57.99121193 87.70160135 -50.7754364 76.76144409 C-46.86528105 70.83194604 -42.95924695 64.89975629 -39.05654907 58.96534729 C-36.4551434 55.00974923 -33.85256112 51.05492591 -31.24993896 47.10012817 C-30.02137564 45.23256714 -28.79336842 43.36464013 -27.565979 41.49630737 C-21.74528818 32.63654568 -15.90583252 23.79219667 -9.9140625 15.046875 C-9.4742807 14.40333069 -9.0344989 13.75978638 -8.58139038 13.09674072 C-6.71677882 10.39154603 -4.83406462 7.79648822 -2.75537109 5.24707031 C-0.82582817 3.03551166 -0.82582817 3.03551166 0 0 Z " fill="#2D2D2F" transform="translate(959,411)"/>
<path d="M0 0 C0.66 1.32 1.32 2.64 2 4 C-4.15034169 12.44646925 -4.15034169 12.44646925 -8 16 C-8.33 15.34 -8.66 14.68 -9 14 C-7.58902133 11.54330645 -6.13956406 9.22085376 -4.5625 6.875 C-4.12873047 6.21628906 -3.69496094 5.55757813 -3.24804688 4.87890625 C-2.17250886 3.24787057 -1.08715514 1.62331547 0 0 Z " fill="#474849" transform="translate(949,426)"/>
<path d="M0 0 C1.89213369 2.38573379 3.02391783 4.07175348 4 7 C3.01 7.66 2.02 8.32 1 9 C0.63539547 11.66653905 0.63539547 11.66653905 0.8125 14.625 C0.83957031 15.62789063 0.86664063 16.63078125 0.89453125 17.6640625 C0.92933594 18.43492187 0.96414063 19.20578125 1 20 C-1.33390135 16.3284872 -1.23664308 13.1549154 -1.1875 8.875 C-1.18105469 7.63492187 -1.17460937 6.39484375 -1.16796875 5.1171875 C-1 2 -1 2 0 0 Z " fill="#363637" transform="translate(295,411)"/>
<path d="M0 0 C0.66 0.33 1.32 0.66 2 1 C0.84906278 4.45281166 -0.3205993 5.38082163 -3.0625 7.6875 C-3.79597656 8.31011719 -4.52945313 8.93273437 -5.28515625 9.57421875 C-5.85105469 10.04472656 -6.41695312 10.51523437 -7 11 C-7.66 10.67 -8.32 10.34 -9 10 C-7.61811547 6.78956118 -6.07578097 4.95063635 -3.375 2.75 C-2.74335937 2.22921875 -2.11171875 1.7084375 -1.4609375 1.171875 C-0.73777344 0.59179688 -0.73777344 0.59179688 0 0 Z " fill="#191A1A" transform="translate(714,487)"/>
<path d="M0 0 C0.66 0.99 1.32 1.98 2 3 C-0.31 5.97 -2.62 8.94 -5 12 C-5.66 11.34 -6.32 10.68 -7 10 C-3.535 5.05 -3.535 5.05 0 0 Z " fill="#202022" transform="translate(725,748)"/>
<path d="M0 0 C0.70703125 1.703125 0.70703125 1.703125 1 4 C-0.36328125 6.359375 -0.36328125 6.359375 -2.3125 8.75 C-3.26576172 9.94882812 -3.26576172 9.94882812 -4.23828125 11.171875 C-4.81964844 11.77515625 -5.40101563 12.3784375 -6 13 C-6.66 13 -7.32 13 -8 13 C-6.53181332 9.89257577 -4.79975 7.09528261 -2.875 4.25 C-2.33617187 3.45078125 -1.79734375 2.6515625 -1.2421875 1.828125 C-0.62730469 0.92320312 -0.62730469 0.92320312 0 0 Z " fill="#1D1E1F" transform="translate(799,646)"/>
<path d="M0 0 C0.66 0.33 1.32 0.66 2 1 C-1.30015998 5.13937592 -4.17324411 8.58662205 -9 11 C-8.46324097 7.14896699 -6.88399077 5.68202413 -3.9375 3.25 C-3.20402344 2.63640625 -2.47054687 2.0228125 -1.71484375 1.390625 C-1.14894531 0.93171875 -0.58304688 0.4728125 0 0 Z " fill="#1C1C1D" transform="translate(964,276)"/>
<path d="M0 0 C0.66 0.33 1.32 0.66 2 1 C0.78575607 2.49144105 -0.44706045 3.96777403 -1.6875 5.4375 C-2.37199219 6.26121094 -3.05648438 7.08492187 -3.76171875 7.93359375 C-6.24022612 10.22177944 -7.69136813 10.68130516 -11 11 C-7.33333333 7.33333333 -3.66666667 3.66666667 0 0 Z " fill="#E2E1E3" transform="translate(361,919)"/>
<path d="M0 0 C0.66 0.33 1.32 0.66 2 1 C-0.31 3.64 -2.62 6.28 -5 9 C-5.99 8.34 -6.98 7.68 -8 7 C-5.36 4.69 -2.72 2.38 0 0 Z " fill="#1F1F21" transform="translate(983,260)"/>
<path d="M0 0 C0.66 0.99 1.32 1.98 2 3 C0.02 5.97 0.02 5.97 -2 9 C-3.32 8.67 -4.64 8.34 -6 8 C-4.02 5.36 -2.04 2.72 0 0 Z " fill="#252627" transform="translate(709,770)"/>
<path d="M0 0 C0.66 0.33 1.32 0.66 2 1 C-1.00517424 4.86379545 -3.45081065 7.90983192 -8 10 C-8.66 9.67 -9.32 9.34 -10 9 C-6.7 6.03 -3.4 3.06 0 0 Z " fill="#242426" transform="translate(702,497)"/>
<path d="M0 0 C0 3.39593478 -0.52165948 4.06619881 -2.5 6.6875 C-2.9640625 7.31011719 -3.428125 7.93273437 -3.90625 8.57421875 C-4.2671875 9.04472656 -4.628125 9.51523437 -5 10 C-6.32 9.34 -7.64 8.68 -9 8 C-6.03 5.36 -3.06 2.72 0 0 Z " fill="#D5D5D5" transform="translate(958,412)"/>
<path d="M0 0 C1.31611677 0.95336021 2.62778961 1.91285774 3.9375 2.875 C4.66839844 3.40867187 5.39929688 3.94234375 6.15234375 4.4921875 C8 6 8 6 9 8 C8.34 8 7.68 8 7 8 C6.67 8.66 6.34 9.32 6 10 C4.99421411 8.71283353 3.99553202 7.42011342 3 6.125 C2.443125 5.40570313 1.88625 4.68640625 1.3125 3.9453125 C0 2 0 2 0 0 Z " fill="#DEDEDE" transform="translate(296,412)"/>
<path d="M0 0 C0.99 0.33 1.98 0.66 3 1 C0.03 3.64 -2.94 6.28 -6 9 C-6.66 8.34 -7.32 7.68 -8 7 C-6.74057614 5.80040625 -5.46704714 4.61560557 -4.1875 3.4375 C-3.12595703 2.44556641 -3.12595703 2.44556641 -2.04296875 1.43359375 C-1.36878906 0.96050781 -0.69460938 0.48742187 0 0 Z " fill="#171718" transform="translate(816,401)"/>
<path d="M0 0 C0.66 0.33 1.32 0.66 2 1 C-0.62652025 4.59930552 -2.93963643 7.07666989 -7 9 C-7.66 8.67 -8.32 8.34 -9 8 C-6.03 5.36 -3.06 2.72 0 0 Z " fill="#202122" transform="translate(951,287)"/>
<path d="M0 0 C0.66 0.33 1.32 0.66 2 1 C1.52797514 5.24822374 -0.96655518 7.19989709 -4 10 C-4 5.75354935 -2.18249194 3.61475228 0 0 Z " fill="#3E3E40" transform="translate(959,411)"/>
<path d="M0 0 C0.66 0.33 1.32 0.66 2 1 C1 4 1 4 -1.875 5.6875 C-5 7 -5 7 -8 7 C-5.36 4.69 -2.72 2.38 0 0 Z " fill="#222224" transform="translate(932,303)"/>
<path d="M0 0 C0.66 0.99 1.32 1.98 2 3 C1.01 3.33 0.02 3.66 -1 4 C-2.42857119 5.40105576 -2.42857119 5.40105576 -3.6875 7.0625 C-4.450625 8.031875 -5.21375 9.00125 -6 10 C-6.66 9.67 -7.32 9.34 -8 9 C-5.36 6.03 -2.72 3.06 0 0 Z " fill="#D2D2D3" transform="translate(721,918)"/>
<path d="M0 0 C0.66 0.99 1.32 1.98 2 3 C1.01 3.495 1.01 3.495 0 4 C-0.33 4.99 -0.66 5.98 -1 7 C-2.65 7.66 -4.3 8.32 -6 9 C-4.02 6.03 -2.04 3.06 0 0 Z " fill="#272829" transform="translate(736,733)"/>
<path d="M0 0 C0.66 0.99 1.32 1.98 2 3 C0.68 4.65 -0.64 6.3 -2 8 C-2.99 7.67 -3.98 7.34 -5 7 C-3.35 4.69 -1.7 2.38 0 0 Z " fill="#1D1E1F" transform="translate(773,682)"/>
<path d="M0 0 C1.89213369 2.38573379 3.02391783 4.07175348 4 7 C2.02 7.99 2.02 7.99 0 9 C-1.125 2.25 -1.125 2.25 0 0 Z " fill="#454547" transform="translate(295,411)"/>
<path d="M0 0 C0.66 0.33 1.32 0.66 2 1 C1.34 2.65 0.68 4.3 0 6 C-0.99 6 -1.98 6 -3 6 C-1.125 1.125 -1.125 1.125 0 0 Z " fill="#474748" transform="translate(932,452)"/>
<path d="M0 0 C0.99 0.33 1.98 0.66 3 1 C1.71937515 2.7074998 0.38232443 4.37373596 -1 6 C-1.66 6 -2.32 6 -3 6 C-2.42655063 3.13275314 -2.1385485 2.1385485 0 0 Z " fill="#E4E5E5" transform="translate(903,324)"/>
<path d="M0 0 C0.33 0.99 0.66 1.98 1 3 C-0.98 4.32 -2.96 5.64 -5 7 C-5 6.01 -5 5.02 -5 4 C-2.5 1.8125 -2.5 1.8125 0 0 Z " fill="#EAE9EA" transform="translate(282,988)"/>
<path d="M0 0 C0.66 0.33 1.32 0.66 2 1 C0.75453595 4.73639216 -0.63404953 5.18756513 -4 7 C-4 4 -4 4 -2 1.8125 C-1.34 1.214375 -0.68 0.61625 0 0 Z " fill="#1E1E20" transform="translate(689,508)"/>
<path d="M0 0 C0.66 0.99 1.32 1.98 2 3 C0.68 4.32 -0.64 5.64 -2 7 C-2 3 -2 3 0 0 Z " fill="#4B4C4E" transform="translate(928,458)"/>
</svg>
